<svg width="120" height="100" viewBox="0 0 120 100" fill="none" xmlns="http://www.w3.org/2000/svg">
<g id="triangles" clip-path="url(#clip0_2_2)">
<rect width="120" height="100" fill="white"/>
<g id="lightGroup">
<g id="light1" opacity="0.7" filter="url(#filter0_d_2_2)">
<path d="M42 48.7679C43.3333 49.5377 43.3333 51.4623 42 52.2321L8.25 71.7176C6.91667 72.4874 5.25 71.5252 5.25 69.9856L5.25 31.0144C5.25 29.4748 6.91667 28.5126 8.25 29.2824L42 48.7679Z" fill="#636FE3"/>
</g>
</g>
<g id="darkGroup">
<g id="dark1" opacity="0.7" filter="url(#filter1_d_2_2)">
<path d="M55 48.7679C56.3333 49.5377 56.3333 51.4623 55 52.2321L21.25 71.7176C19.9167 72.4874 18.25 71.5252 18.25 69.9856L18.25 31.0144C18.25 29.4748 19.9167 28.5126 21.25 29.2824L55 48.7679Z" fill="#815FE2"/>
</g>
<g id="dark2" opacity="0.7" filter="url(#filter2_d_2_2)">
<path d="M42 48.7679C43.3333 49.5377 43.3333 51.4623 42 52.2321L8.25 71.7176C6.91667 72.4874 5.25 71.5252 5.25 69.9856L5.25 31.0144C5.25 29.4748 6.91667 28.5126 8.25 29.2824L42 48.7679Z" fill="#815FE2"/>
</g>
</g>
</g>
<defs>
<filter id="filter0_d_2_2" x="1.25" y="29.0114" width="45.75" height="50.9771" filterUnits="userSpaceOnUse" color-interpolation-filters="sRGB">
<feFlood flood-opacity="0" result="BackgroundImageFix"/>
<feColorMatrix in="SourceAlpha" type="matrix" values="0 0 0 0 0 0 0 0 0 0 0 0 0 0 0 0 0 0 127 0" result="hardAlpha"/>
<feOffset dy="4"/>
<feGaussianBlur stdDeviation="2"/>
<feComposite in2="hardAlpha" operator="out"/>
<feColorMatrix type="matrix" values="0 0 0 0 0 0 0 0 0 0 0 0 0 0 0 0 0 0 0.25 0"/>
<feBlend mode="normal" in2="BackgroundImageFix" result="effect1_dropShadow_2_2"/>
<feBlend mode="normal" in="SourceGraphic" in2="effect1_dropShadow_2_2" result="shape"/>
</filter>
<filter id="filter1_d_2_2" x="14.25" y="29.0114" width="45.75" height="50.9771" filterUnits="userSpaceOnUse" color-interpolation-filters="sRGB">
<feFlood flood-opacity="0" result="BackgroundImageFix"/>
<feColorMatrix in="SourceAlpha" type="matrix" values="0 0 0 0 0 0 0 0 0 0 0 0 0 0 0 0 0 0 127 0" result="hardAlpha"/>
<feOffset dy="4"/>
<feGaussianBlur stdDeviation="2"/>
<feComposite in2="hardAlpha" operator="out"/>
<feColorMatrix type="matrix" values="0 0 0 0 0 0 0 0 0 0 0 0 0 0 0 0 0 0 0.25 0"/>
<feBlend mode="normal" in2="BackgroundImageFix" result="effect1_dropShadow_2_2"/>
<feBlend mode="normal" in="SourceGraphic" in2="effect1_dropShadow_2_2" result="shape"/>
</filter>
<filter id="filter2_d_2_2" x="1.25" y="29.0114" width="45.75" height="50.9771" filterUnits="userSpaceOnUse" color-interpolation-filters="sRGB">
<feFlood flood-opacity="0" result="BackgroundImageFix"/>
<feColorMatrix in="SourceAlpha" type="matrix" values="0 0 0 0 0 0 0 0 0 0 0 0 0 0 0 0 0 0 127 0" result="hardAlpha"/>
<feOffset dy="4"/>
<feGaussianBlur stdDeviation="2"/>
<feComposite in2="hardAlpha" operator="out"/>
<feColorMatrix type="matrix" values="0 0 0 0 0 0 0 0 0 0 0 0 0 0 0 0 0 0 0.25 0"/>
<feBlend mode="normal" in2="BackgroundImageFix" result="effect1_dropShadow_2_2"/>
<feBlend mode="normal" in="SourceGraphic" in2="effect1_dropShadow_2_2" result="shape"/>
</filter>
<clipPath id="clip0_2_2">
<rect width="120" height="100" fill="white"/>
</clipPath>
</defs>
</svg>
