
<svg version="1.1" id="logo" xmlns="http://www.w3.org/2000/svg" xmlns:xlink="http://www.w3.org/1999/xlink" x="0px" y="0px"
	 viewBox="0 0 232.1 148.2" style="enable-background:new 0 0 232.1 148.2;" xml:space="preserve">

<defs>

	<style type="text/css">

	.st0{fill:#fff;stroke:#1D1D1B;stroke-width:7;stroke-linecap:round;stroke-miterlimit:10;}

	.st0 {
		stroke-dasharray: 1200;
		stroke-dashoffset: 0;
		-webkit-animation: dash 2s linear forwards;
		-o-animation: dash 2s linear forwards;
		-moz-animation: dash 2s linear forwards;
		animation: dash 2s linear forwards;
	}

	#logo {
		cursor: pointer;
	}

	#logo:hover .st0 {
		fill: #000;
		transition: .8s;
	}

	#logo.clickit .st0 {
		fill: yellow;
	}

	@-webkit-keyframes dash {
		from {
			stroke-dashoffset: 1200;
		}
		to {
			stroke-dashoffset: 0;
		}
	}

	</style>

	<script type="text/javascript">

		var clicker = document.querySelector('#logo');

		clicker.addEventListener('click', function() {
			this.classList.toggle('clickit');
		});

	</script>

</defs>


<path class="st0" d="M122.1,42.9c9.4-7.6,22.4-18.9,37.4-34.3c23,1,45.9,2,68.9,2.9c-0.5,8.5-1.1,17-1.6,25.5
	c-20.9-1.1-41.8-2.2-62.7-3.3c-17.8,7.7-29.3,25.1-29,43.8c0.3,25.2,21.8,38.6,23.1,39.5c20,0.3,40,0.7,60.1,1
	c-0.1,8.7-0.2,17.5-0.3,26.2c-21.4-0.4-42.8-0.8-64.2-1.3c-22.3-12.8-46.5-30.1-43.5-44.9c0.9-4.3,3.9-7.6,3.3-8.1
	c-1-0.9-22.4,52-53.2,54.7c-0.7,0.1-0.4,0-19.3-1.2c-13.5-0.9-24.4-1.5-31.7-2c-0.1-9.7-0.2-19.4-0.2-29c16.5,0.8,33.1,1.6,49.6,2.4
	c20.3-6,33.3-25,31.8-44.3c-1.8-22.3-22.7-40.6-47.3-38.9c-12.9,0.3-25.8,0.7-38.8,1C4.2,22.9,3.9,13.2,3.6,3.5
	c25.1,0.2,50.2,0.4,75.3,0.6C106.3,29,110,41.3,107.2,48c-1.1,2.7-3.9,5.9-3.2,6.7C104.4,55.2,106.1,55.8,122.1,42.9z"/>
</svg>
