<svg id="visual" viewBox="0 0 960 300" width="960" height="300" xmlns="http://www.w3.org/2000/svg" xmlns:xlink="http://www.w3.org/1999/xlink" version="1.1"><rect x="0" y="0" width="960" height="300" fill="#001220"></rect><path d="M0 191L22.8 194.2C45.7 197.3 91.3 203.7 137 202.2C182.7 200.7 228.3 191.3 274 186.2C319.7 181 365.3 180 411.2 180.2C457 180.3 503 181.7 548.8 187.7C594.7 193.7 640.3 204.3 686 210.2C731.7 216 777.3 217 823 210.3C868.7 203.7 914.3 189.3 937.2 182.2L960 175L960 301L937.2 301C914.3 301 868.7 301 823 301C777.3 301 731.7 301 686 301C640.3 301 594.7 301 548.8 301C503 301 457 301 411.2 301C365.3 301 319.7 301 274 301C228.3 301 182.7 301 137 301C91.3 301 45.7 301 22.8 301L0 301Z" fill="#fa7268"></path><path d="M0 211L22.8 212.5C45.7 214 91.3 217 137 214.7C182.7 212.3 228.3 204.7 274 207.2C319.7 209.7 365.3 222.3 411.2 224.8C457 227.3 503 219.7 548.8 214.3C594.7 209 640.3 206 686 203.8C731.7 201.7 777.3 200.3 823 202.8C868.7 205.3 914.3 211.7 937.2 214.8L960 218L960 301L937.2 301C914.3 301 868.7 301 823 301C777.3 301 731.7 301 686 301C640.3 301 594.7 301 548.8 301C503 301 457 301 411.2 301C365.3 301 319.7 301 274 301C228.3 301 182.7 301 137 301C91.3 301 45.7 301 22.8 301L0 301Z" fill="#ef5f67"></path><path d="M0 242L22.8 243.7C45.7 245.3 91.3 248.7 137 249.2C182.7 249.7 228.3 247.3 274 244.7C319.7 242 365.3 239 411.2 238.8C457 238.7 503 241.3 548.8 242.2C594.7 243 640.3 242 686 241.3C731.7 240.7 777.3 240.3 823 240.2C868.7 240 914.3 240 937.2 240L960 240L960 301L937.2 301C914.3 301 868.7 301 823 301C777.3 301 731.7 301 686 301C640.3 301 594.7 301 548.8 301C503 301 457 301 411.2 301C365.3 301 319.7 301 274 301C228.3 301 182.7 301 137 301C91.3 301 45.7 301 22.8 301L0 301Z" fill="#e34c67"></path><path d="M0 259L22.8 258.3C45.7 257.7 91.3 256.3 137 256.3C182.7 256.3 228.3 257.7 274 255.8C319.7 254 365.3 249 411.2 250C457 251 503 258 548.8 260.7C594.7 263.3 640.3 261.7 686 260.2C731.7 258.7 777.3 257.3 823 257.2C868.7 257 914.3 258 937.2 258.5L960 259L960 301L937.2 301C914.3 301 868.7 301 823 301C777.3 301 731.7 301 686 301C640.3 301 594.7 301 548.8 301C503 301 457 301 411.2 301C365.3 301 319.7 301 274 301C228.3 301 182.7 301 137 301C91.3 301 45.7 301 22.8 301L0 301Z" fill="#d53867"></path><path d="M0 285L22.8 283.8C45.7 282.7 91.3 280.3 137 280C182.7 279.7 228.3 281.3 274 279C319.7 276.7 365.3 270.3 411.2 267.2C457 264 503 264 548.8 263.7C594.7 263.3 640.3 262.7 686 264C731.7 265.3 777.3 268.7 823 268.7C868.7 268.7 914.3 265.3 937.2 263.7L960 262L960 301L937.2 301C914.3 301 868.7 301 823 301C777.3 301 731.7 301 686 301C640.3 301 594.7 301 548.8 301C503 301 457 301 411.2 301C365.3 301 319.7 301 274 301C228.3 301 182.7 301 137 301C91.3 301 45.7 301 22.8 301L0 301Z" fill="#c62368"></path></svg>